<?xml version="1.0" standalone="no"?>
<!DOCTYPE svg PUBLIC "-//W3C//DTD SVG 20010904//EN"
 "http://www.w3.org/TR/2001/REC-SVG-20010904/DTD/svg10.dtd">
<svg version="1.0" xmlns="http://www.w3.org/2000/svg"
 width="500.000000pt" height="500.000000pt" viewBox="0 0 500.000000 500.000000"
 preserveAspectRatio="xMidYMid meet">
<metadata>
Created by potrace 1.14, written by Peter Selinger 2001-2017
</metadata>
<g transform="translate(0.000000,500.000000) scale(0.100000,-0.100000)"
fill="#000000" stroke="none">
<path d="M0 2500 l0 -2500 2500 0 2500 0 0 2500 0 2500 -2500 0 -2500 0 0
-2500z m4640 50 l0 -2150 -2142 2 -2143 3 -3 2148 -2 2147 2145 0 2145 0 0
-2150z"/>
<path d="M430 2540 l0 -2070 2070 0 2070 0 0 2070 0 2070 -2070 0 -2070 0 0
-2070z m1783 589 c24 40 95 68 144 55 67 -17 77 -44 83 -222 l5 -157 30 -15
30 -15 -53 -3 c-29 -2 -74 -2 -100 0 -46 3 -46 4 -20 15 35 16 41 48 37 211
-4 142 -12 162 -60 162 -87 0 -119 -59 -119 -219 0 -114 9 -151 35 -151 8 0
15 -4 15 -10 0 -6 -37 -10 -90 -10 -53 0 -90 4 -90 10 0 6 8 10 18 10 40 0 42
15 42 278 0 155 -4 261 -10 273 -6 10 -20 19 -30 19 -11 0 -20 4 -20 10 0 5
28 10 63 12 l62 3 5 -143 c5 -142 5 -143 23 -113z m-167 179 c-3 -13 -6 -51
-6 -86 0 -72 -15 -76 -23 -5 -7 65 -40 93 -108 93 l-49 0 0 -244 c0 -265 2
-276 56 -276 13 0 24 -4 24 -10 0 -6 -45 -10 -115 -10 -70 0 -115 4 -115 10 0
6 11 10 24 10 54 0 56 11 56 276 l0 244 -49 0 c-68 0 -98 -26 -107 -91 -10
-75 -24 -69 -24 10 0 38 -3 76 -6 85 -5 14 18 16 221 16 l227 0 -6 -22z m715
-129 c80 -27 118 -95 119 -210 0 -99 -26 -154 -90 -187 -59 -30 -141 -27 -189
8 -97 69 -100 303 -4 365 52 34 108 42 164 24z m438 -2 c29 -15 41 -45 30 -75
-7 -19 -15 -23 -41 -20 -26 2 -34 8 -36 27 -2 13 1 28 7 34 15 15 14 27 -3 27
-23 0 -78 -51 -92 -87 -9 -21 -14 -72 -14 -144 0 -123 10 -149 57 -149 12 0
23 -4 23 -10 0 -6 -42 -10 -105 -10 -63 0 -105 4 -105 10 0 6 9 10 20 10 33 0
40 33 40 182 0 114 -3 148 -16 166 -8 12 -22 22 -30 22 -8 0 -14 3 -14 8 0 4
29 8 65 9 l65 2 0 -42 0 -42 21 33 c22 33 62 61 89 61 8 1 26 -5 39 -12z m741
-677 l0 -50 -1440 0 -1440 0 0 50 0 50 1440 0 1440 0 0 -50z m-1992 -451 c29
40 91 58 144 42 62 -19 68 -37 69 -196 1 -162 6 -189 37 -193 12 -2 22 -8 22
-13 0 -5 -40 -9 -90 -9 -49 0 -90 4 -90 9 0 5 10 11 23 13 22 3 22 5 25 170 3
187 -1 198 -65 198 -26 0 -42 -8 -64 -31 -36 -38 -41 -66 -37 -209 3 -108 4
-116 26 -125 41 -18 23 -25 -68 -25 -53 0 -90 4 -90 10 0 6 9 10 20 10 10 0
24 9 30 19 11 21 14 479 4 519 -4 12 -17 25 -30 28 -43 11 -25 23 39 26 l62 3
5 -138 5 -139 23 31z m-588 182 c0 -5 -13 -11 -29 -14 l-28 -6 -5 -263 c-6
-285 -11 -313 -65 -371 -31 -32 -113 -60 -113 -39 0 4 15 14 34 20 61 22 66
52 66 365 0 283 -2 297 -42 297 -10 0 -18 5 -18 10 0 6 40 10 100 10 55 0 100
-4 100 -9z m314 -159 c91 -53 114 -254 38 -343 -66 -79 -198 -79 -265 0 -64
77 -64 240 1 312 53 58 155 72 226 31z m875 17 c52 -18 61 -49 61 -209 0 -147
7 -180 40 -180 11 0 20 -4 20 -10 0 -6 -37 -10 -90 -10 -91 0 -109 7 -67 25
21 10 22 15 25 164 2 125 0 158 -13 177 -31 48 -117 22 -144 -43 -7 -18 -11
-77 -9 -163 3 -131 4 -135 26 -138 12 -2 22 -8 22 -13 0 -5 -40 -9 -90 -9 -49
0 -90 4 -90 9 0 5 10 11 22 13 30 4 36 31 37 169 1 145 -5 178 -35 191 -38 18
-29 23 41 25 l65 2 0 -36 0 -36 22 28 c38 48 97 65 157 44z m339 -9 c44 -20
44 -20 49 0 11 43 23 17 23 -50 0 -38 -4 -70 -9 -70 -4 0 -16 20 -25 45 -21
53 -48 75 -93 75 -39 0 -63 -22 -63 -59 0 -31 17 -48 107 -111 74 -51 96 -80
96 -132 0 -86 -116 -138 -205 -92 -29 15 -33 15 -43 0 -7 -8 -14 -14 -16 -12
-8 8 3 156 12 156 5 0 9 -10 9 -22 0 -13 9 -42 20 -65 14 -33 26 -44 52 -51
65 -17 109 19 99 83 -4 29 -16 40 -96 96 -40 27 -77 61 -83 75 -21 44 -15 92
14 119 41 38 90 43 152 15z m417 -10 c103 -64 106 -298 5 -370 -74 -53 -199
-32 -247 42 -21 31 -27 54 -31 119 -7 121 31 197 113 228 42 15 120 6 160 -19z
m464 -4 c25 -26 26 -30 29 -184 4 -159 9 -182 43 -182 11 0 19 -4 19 -10 0 -6
-37 -10 -90 -10 -53 0 -90 4 -90 10 0 6 7 10 15 10 27 0 35 39 35 177 0 163
-8 187 -61 191 -50 4 -93 -33 -108 -92 -12 -48 -15 -206 -4 -244 3 -13 17 -29
32 -35 24 -11 23 -12 -27 -15 -29 -2 -74 -2 -100 0 l-47 3 30 15 30 15 3 150
c3 176 0 193 -34 201 -38 10 -20 18 46 20 l60 3 0 -40 0 -41 27 33 c54 64 141
75 192 25z"/>
<path d="M2647 3144 c-80 -80 -51 -354 38 -365 77 -10 117 50 119 176 1 102
-9 147 -40 185 -34 39 -80 41 -117 4z"/>
<path d="M1528 2061 c-33 -26 -48 -82 -48 -177 0 -96 12 -143 45 -174 52 -49
121 -17 144 68 14 48 14 166 0 216 -22 78 -87 109 -141 67z"/>
<path d="M3146 2050 c-30 -37 -41 -81 -40 -176 0 -81 25 -158 57 -176 30 -16
76 -12 98 8 42 38 61 169 38 273 -21 97 -100 134 -153 71z"/>
</g>
</svg>
